<svg width="187" height="15" viewBox="0 0 187 15" fill="none" xmlns="http://www.w3.org/2000/svg">
<path d="M7.70517 5.34067H10.3579C10.3195 3.00757 8.4019 1.39678 5.48713 1.39678C2.6171 1.39678 0.514116 2.982 0.5269 5.35985C0.520508 7.29024 1.88201 8.39607 4.09366 8.92661L5.51909 9.28456C6.94451 9.62973 7.73713 10.0388 7.74352 10.9209C7.73713 11.8797 6.82946 12.5317 5.42321 12.5317C3.985 12.5317 2.94949 11.8669 2.86 10.5566H0.181729C0.252042 13.3883 2.27832 14.852 5.45517 14.852C8.65119 14.852 10.5305 13.3243 10.5368 10.9273C10.5305 8.74763 8.8877 7.59067 6.61213 7.07931L5.43599 6.79806C4.29821 6.53598 3.34579 6.11411 3.36497 5.17448C3.36497 4.33073 4.11284 3.7107 5.46795 3.7107C6.7911 3.7107 7.60289 4.31155 7.70517 5.34067ZM18.6436 10.4863C18.6499 11.803 17.7487 12.4934 16.7707 12.4934C15.7416 12.4934 15.0768 11.7711 15.0704 10.6141V4.84848H12.3474V11.0999C12.3538 13.3946 13.6961 14.7945 15.6713 14.7945C17.1478 14.7945 18.2089 14.0339 18.6499 12.8833H18.7522V14.6667H21.3666V4.84848H18.6436V10.4863ZM26.3444 14.852C27.7954 14.852 28.735 14.2192 29.2144 13.3052H29.2911V14.6667H31.8735V8.0445C31.8735 5.70502 29.892 4.72064 27.7059 4.72064C25.3536 4.72064 23.8067 5.84564 23.4296 7.63541L25.9481 7.83996C26.1334 7.18797 26.7151 6.70857 27.6931 6.70857C28.6199 6.70857 29.1505 7.17519 29.1505 7.98058V8.01894C29.1505 8.65175 28.4793 8.73485 26.7726 8.90104C24.8295 9.08002 23.0844 9.732 23.0844 11.9245C23.0844 13.8677 24.4715 14.852 26.3444 14.852ZM27.1242 12.9728C26.2868 12.9728 25.686 12.5829 25.686 11.835C25.686 11.0679 26.3188 10.6908 27.2776 10.5566C27.8721 10.4735 28.8437 10.3329 29.1697 10.1155V11.1574C29.1697 12.1866 28.3195 12.9728 27.1242 12.9728ZM46.3211 7.6482C46.0782 5.83925 44.6208 4.72064 42.1407 4.72064C39.6286 4.72064 37.9731 5.88399 37.9795 7.77604C37.9731 9.24621 38.8999 10.1986 40.8176 10.5821L42.5178 10.9209C43.3744 11.0935 43.7643 11.4067 43.7771 11.8989C43.7643 12.4806 43.1315 12.8961 42.1791 12.8961C41.2075 12.8961 40.5619 12.4806 40.3957 11.6816L37.7174 11.8222C37.9731 13.7015 39.5711 14.8584 42.1727 14.8584C44.7167 14.8584 46.5384 13.5608 46.5448 11.6241C46.5384 10.205 45.6116 9.35487 43.7068 8.96496L41.9298 8.607C41.0157 8.40885 40.6769 8.09564 40.6833 7.62263C40.6769 7.03456 41.3417 6.65104 42.1855 6.65104C43.1315 6.65104 43.694 7.16879 43.8282 7.80161L46.3211 7.6482ZM51.0592 14.852C52.5102 14.852 53.4498 14.2192 53.9292 13.3052H54.0059V14.6667H56.5883V8.0445C56.5883 5.70502 54.6068 4.72064 52.4207 4.72064C50.0684 4.72064 48.5216 5.84564 48.1444 7.63541L50.6629 7.83996C50.8483 7.18797 51.43 6.70857 52.4079 6.70857C53.3348 6.70857 53.8653 7.17519 53.8653 7.98058V8.01894C53.8653 8.65175 53.1942 8.73485 51.4875 8.90104C49.5443 9.08002 47.7993 9.732 47.7993 11.9245C47.7993 13.8677 49.1863 14.852 51.0592 14.852ZM51.839 12.9728C51.0017 12.9728 50.4008 12.5829 50.4008 11.835C50.4008 11.0679 51.0336 10.6908 51.9925 10.5566C52.5869 10.4735 53.5585 10.3329 53.8845 10.1155V11.1574C53.8845 12.1866 53.0344 12.9728 51.839 12.9728ZM63.137 14.8584C65.7513 14.8584 67.3941 13.3243 67.5219 11.0679H64.9523C64.7925 12.1162 64.1022 12.7043 63.1689 12.7043C61.8969 12.7043 61.0724 11.6368 61.0724 9.75757C61.0724 7.90388 61.9033 6.8428 63.1689 6.8428C64.1661 6.8428 64.8053 7.50118 64.9523 8.47916H67.5219C67.4069 6.20999 65.6874 4.72064 63.1242 4.72064C60.1455 4.72064 58.3046 6.78527 58.3046 9.79593C58.3046 12.781 60.1135 14.8584 63.137 14.8584ZM73.7014 14.8584C76.6801 14.8584 78.5338 12.8194 78.5338 9.79593C78.5338 6.75331 76.6801 4.72064 73.7014 4.72064C70.7227 4.72064 68.8691 6.75331 68.8691 9.79593C68.8691 12.8194 70.7227 14.8584 73.7014 14.8584ZM73.7142 12.7491C72.3399 12.7491 71.6368 11.4898 71.6368 9.77675C71.6368 8.06368 72.3399 6.79806 73.7142 6.79806C75.0629 6.79806 75.7661 8.06368 75.7661 9.77675C75.7661 11.4898 75.0629 12.7491 73.7142 12.7491ZM83.0274 1.57575H80.3044V14.6667H83.0274V1.57575ZM88.0084 14.852C89.4594 14.852 90.3991 14.2192 90.8785 13.3052H90.9552V14.6667H93.5376V8.0445C93.5376 5.70502 91.556 4.72064 89.3699 4.72064C87.0177 4.72064 85.4708 5.84564 85.0937 7.63541L87.6121 7.83996C87.7975 7.18797 88.3792 6.70857 89.3572 6.70857C90.284 6.70857 90.8145 7.17519 90.8145 7.98058V8.01894C90.8145 8.65175 90.1434 8.73485 88.4367 8.90104C86.4935 9.08002 84.7485 9.732 84.7485 11.9245C84.7485 13.8677 86.1356 14.852 88.0084 14.852ZM88.7883 12.9728C87.9509 12.9728 87.3501 12.5829 87.3501 11.835C87.3501 11.0679 87.9829 10.6908 88.9417 10.5566C89.5361 10.4735 90.5077 10.3329 90.8337 10.1155V11.1574C90.8337 12.1866 89.9836 12.9728 88.7883 12.9728ZM104.291 14.8584C106.72 14.8584 108.356 13.6759 108.739 11.8542L106.221 11.688C105.946 12.4358 105.243 12.8258 104.335 12.8258C102.974 12.8258 102.111 11.9245 102.111 10.4607V10.4543H108.797V9.70644C108.797 6.36979 106.777 4.72064 104.182 4.72064C101.293 4.72064 99.4198 6.77249 99.4198 9.80232C99.4198 12.9152 101.267 14.8584 104.291 14.8584ZM102.111 8.76681C102.168 7.6482 103.019 6.75331 104.227 6.75331C105.409 6.75331 106.227 7.59706 106.234 8.76681H102.111ZM118.743 7.6482C118.5 5.83925 117.043 4.72064 114.563 4.72064C112.051 4.72064 110.395 5.88399 110.401 7.77604C110.395 9.24621 111.322 10.1986 113.239 10.5821L114.94 10.9209C115.796 11.0935 116.186 11.4067 116.199 11.8989C116.186 12.4806 115.553 12.8961 114.601 12.8961C113.629 12.8961 112.984 12.4806 112.818 11.6816L110.139 11.8222C110.395 13.7015 111.993 14.8584 114.595 14.8584C117.139 14.8584 118.96 13.5608 118.967 11.6241C118.96 10.205 118.033 9.35487 116.129 8.96496L114.352 8.607C113.438 8.40885 113.099 8.09564 113.105 7.62263C113.099 7.03456 113.764 6.65104 114.607 6.65104C115.553 6.65104 116.116 7.16879 116.25 7.80161L118.743 7.6482ZM125.904 4.84848H124.056V2.49621H121.333V4.84848H119.991V6.89394H121.333V12.0076C121.321 13.9316 122.631 14.884 124.606 14.8009C125.309 14.7753 125.808 14.6347 126.083 14.5452L125.654 12.5189C125.52 12.5445 125.233 12.6084 124.977 12.6084C124.434 12.6084 124.056 12.4039 124.056 11.6496V6.89394H125.904V4.84848ZM130.477 14.852C131.928 14.852 132.868 14.2192 133.347 13.3052H133.424V14.6667H136.006V8.0445C136.006 5.70502 134.025 4.72064 131.839 4.72064C129.486 4.72064 127.94 5.84564 127.562 7.63541L130.081 7.83996C130.266 7.18797 130.848 6.70857 131.826 6.70857C132.753 6.70857 133.283 7.17519 133.283 7.98058V8.01894C133.283 8.65175 132.612 8.73485 130.905 8.90104C128.962 9.08002 127.217 9.732 127.217 11.9245C127.217 13.8677 128.604 14.852 130.477 14.852ZM131.257 12.9728C130.42 12.9728 129.819 12.5829 129.819 11.835C129.819 11.0679 130.452 10.6908 131.41 10.5566C132.005 10.4735 132.976 10.3329 133.302 10.1155V11.1574C133.302 12.1866 132.452 12.9728 131.257 12.9728ZM130.963 3.58286H132.887L134.837 0.674477H132.318L130.963 3.58286ZM151.438 4.84848H148.555L146.523 11.8733H146.421L144.381 4.84848H141.505L144.938 14.6667H148.006L151.438 4.84848ZM155.35 14.852C156.801 14.852 157.741 14.2192 158.22 13.3052H158.297V14.6667H160.879V8.0445C160.879 5.70502 158.898 4.72064 156.712 4.72064C154.359 4.72064 152.813 5.84564 152.435 7.63541L154.954 7.83996C155.139 7.18797 155.721 6.70857 156.699 6.70857C157.626 6.70857 158.156 7.17519 158.156 7.98058V8.01894C158.156 8.65175 157.485 8.73485 155.778 8.90104C153.835 9.08002 152.09 9.732 152.09 11.9245C152.09 13.8677 153.477 14.852 155.35 14.852ZM156.13 12.9728C155.293 12.9728 154.692 12.5829 154.692 11.835C154.692 11.0679 155.325 10.6908 156.283 10.5566C156.878 10.4735 157.85 10.3329 158.176 10.1155V11.1574C158.176 12.1866 157.325 12.9728 156.13 12.9728ZM162.941 14.6667H171.193V12.4934H166.514V12.4231L171.027 6.61908V4.84848H163.107V7.02178H167.748V7.09209L162.941 13.0431V14.6667ZM173.275 14.6667H175.998V4.84848H173.275V14.6667ZM174.643 3.58286C175.455 3.58286 176.12 2.96283 176.12 2.20217C176.12 1.44791 175.455 0.827885 174.643 0.827885C173.838 0.827885 173.173 1.44791 173.173 2.20217C173.173 2.96283 173.838 3.58286 174.643 3.58286ZM180.979 14.852C182.43 14.852 183.37 14.2192 183.849 13.3052H183.926V14.6667H186.508V8.0445C186.508 5.70502 184.527 4.72064 182.341 4.72064C179.988 4.72064 178.441 5.84564 178.064 7.63541L180.583 7.83996C180.768 7.18797 181.35 6.70857 182.328 6.70857C183.255 6.70857 183.785 7.17519 183.785 7.98058V8.01894C183.785 8.65175 183.114 8.73485 181.407 8.90104C179.464 9.08002 177.719 9.732 177.719 11.9245C177.719 13.8677 179.106 14.852 180.979 14.852ZM181.759 12.9728C180.922 12.9728 180.321 12.5829 180.321 11.835C180.321 11.0679 180.954 10.6908 181.912 10.5566C182.507 10.4735 183.478 10.3329 183.804 10.1155V11.1574C183.804 12.1866 182.954 12.9728 181.759 12.9728Z" fill="#333333"/>
</svg>
